<?xml version="1.0" encoding="UTF-8"?>
<svg xmlns="http://www.w3.org/2000/svg" width="524.72" height="126.53" viewBox="0 0 524.72 126.53">
  <title>logo</title>
  <polygon points="187.95 78.33 187.95 89.72 174.87 80.94 109.53 37.09 93.97 26.66 93.89 26.59 93.89 0 93.97 0.07 94.06 0.15 186.05 76.75 187.95 78.33" fill="#001e4c"></polygon>
  <polygon points="94.06 0 94.06 26.59 93.97 26.66 47.03 58.16 13.14 80.9 0 89.72 0 78.33 1.94 76.7 93.89 0.15 93.97 0.07 94.06 0" fill="#001e4c"></polygon>
  <polygon points="188.13 125.36 94.06 124.64 94.06 100.21 188.13 122.1 188.13 125.36" fill="#001e4c"></polygon>
  <polygon points="188.13 111.25 94.06 76.15 94.06 52.82 188.13 100.39 188.13 111.25" fill="#001e4c"></polygon>
  <polygon points="0 100.39 94.06 53.36 94.06 26.77 0 89.54 0 100.39" fill="#f9ad00"></polygon>
  <polygon points="0 122.1 94.06 100.39 94.06 75.98 0 111.25 0 122.1" fill="#f9ad00"></polygon>
  <polygon points="0 125.36 94.06 124.64 94.06 100.21 0 122.1 0 125.36" fill="#001e4c"></polygon>
  <polygon points="0 111.25 94.06 76.15 94.06 52.82 0 100.39 0 111.25" fill="#001e4c"></polygon>
  <path d="M210.18,126V114.51h9.11V68.21h-9.1V56.73h35.62a26.5,26.5,0,0,1,11,2.13,16.9,16.9,0,0,1,7.32,6,16.38,16.38,0,0,1,2.63,9.35v1A15.1,15.1,0,0,1,265,83a14.07,14.07,0,0,1-4.2,4.65A18.61,18.61,0,0,1,256.2,90v1.78A17.9,17.9,0,0,1,261,94a13.75,13.75,0,0,1,4.4,4.7,15.51,15.51,0,0,1,1.83,8v1a17.66,17.66,0,0,1-2.67,9.84,17.1,17.1,0,0,1-7.37,6.28A25.68,25.68,0,0,1,246.21,126Zm22.16-40.76h12.07a10.45,10.45,0,0,0,6.68-2.08,7,7,0,0,0,2.62-5.74v-1a7,7,0,0,0-2.57-5.79,10.58,10.58,0,0,0-6.73-2H232.34Zm0,28.89h12.27a10.74,10.74,0,0,0,6.87-2.08,7.16,7.16,0,0,0,2.63-5.94v-1a7.17,7.17,0,0,0-2.58-5.93,10.65,10.65,0,0,0-6.92-2.08H232.34Z" transform="translate(-0.68 -0.84)" fill="#001e4c"></path>
  <path d="M304.57,127.37a31.66,31.66,0,0,1-14.6-3.12,21.65,21.65,0,0,1-9.3-8.9,27.83,27.83,0,0,1-3.21-13.7V56.73h13.07v45.32c0,4.21,1.2,7.55,3.61,10s5.89,3.66,10.44,3.66,8-1.22,10.44-3.66,3.61-5.77,3.61-10V56.73h13.06v44.92a27.67,27.67,0,0,1-3.22,13.7,21.57,21.57,0,0,1-9.3,8.91A31.81,31.81,0,0,1,304.57,127.37Z" transform="translate(-0.68 -0.84)" fill="#001e4c"></path>
  <path d="M344.34,126V56.73H357.4V126Z" transform="translate(-0.68 -0.84)" fill="#001e4c"></path>
  <path d="M370.46,126V56.73h13.08v57.39H415.2V126Z" transform="translate(-0.68 -0.84)" fill="#001e4c"></path>
  <path d="M430.62,126V68.6H410.43V56.73h53.43V68.6H443.68V126Z" transform="translate(-0.68 -0.84)" fill="#001e4c"></path>
  <path d="M496.91,127.37q-13.07,0-20.78-7.17t-7.72-20.53V83q0-13.35,7.72-20.53t20.78-7.17q13.05,0,20.77,7.17T525.4,83V99.67q0,13.35-7.72,20.53T496.91,127.37Zm0-11.67c4.87,0,8.67-1.42,11.37-4.26s4.06-6.63,4.06-11.38V82.65q0-7.12-4.06-11.38T496.91,67q-7.23,0-11.33,4.25t-4.11,11.38v17.41q0,7.13,4.11,11.38t11.33,4.26Z" transform="translate(-0.68 -0.84)" fill="#001e4c"></path>
</svg>
